<svg xmlns="http://www.w3.org/2000/svg" width="85" height="85" viewBox="0 0 85 85">
  <g id="Group_1157239" data-name="Group 1157239" transform="translate(-631 -1578)">
    <g id="Group_1145532" data-name="Group 1145532" transform="translate(631 1578)">
      <g id="Path_978624" data-name="Path 978624" fill="#f5e9a1">
        <path d="M 42.5 83.5 C 36.96437835693359 83.5 31.59512901306152 82.41617584228516 26.54141235351562 80.27863311767578 C 21.65934181213379 78.21369171142578 17.27447128295898 75.25723266601562 13.50862312316895 71.49137878417969 C 9.742764472961426 67.72553253173828 6.786305904388428 63.34066009521484 4.721364498138428 58.45858764648438 C 2.583823442459106 53.40486907958984 1.5 48.03562164306641 1.5 42.5 C 1.5 36.96437835693359 2.583823442459106 31.59512901306152 4.721364498138428 26.54141235351562 C 6.786305904388428 21.65934181213379 9.742764472961426 17.27447128295898 13.50862312316895 13.50862312316895 C 17.27447128295898 9.742764472961426 21.65934181213379 6.786305904388428 26.54141235351562 4.721364498138428 C 31.59512901306152 2.583823442459106 36.96437835693359 1.5 42.5 1.5 C 48.03562164306641 1.5 53.40486907958984 2.583823442459106 58.45858764648438 4.721364498138428 C 63.34066009521484 6.786305904388428 67.72553253173828 9.742764472961426 71.49137878417969 13.50862312316895 C 75.25723266601562 17.27447128295898 78.21369171142578 21.65934181213379 80.27863311767578 26.54141235351562 C 82.41617584228516 31.59512901306152 83.5 36.96437835693359 83.5 42.5 C 83.5 48.03562164306641 82.41617584228516 53.40486907958984 80.27863311767578 58.45858764648438 C 78.21369171142578 63.34066009521484 75.25723266601562 67.72553253173828 71.49137878417969 71.49137878417969 C 67.72553253173828 75.25723266601562 63.34066009521484 78.21369171142578 58.45858764648438 80.27863311767578 C 53.40486907958984 82.41617584228516 48.03562164306641 83.5 42.5 83.5 Z" stroke="none"/>
        <path d="M 42.5 3 C 37.16621398925781 3 31.99356079101562 4.043960571289062 27.125732421875 6.102882385253906 C 22.42246627807617 8.092185974121094 18.19785308837891 10.94070434570312 14.56928253173828 14.56928253173828 C 10.94070434570312 18.19785308837891 8.092185974121094 22.42246627807617 6.102882385253906 27.125732421875 C 4.043960571289062 31.99356079101562 3 37.16621398925781 3 42.5 C 3 47.83378601074219 4.043960571289062 53.00643920898438 6.102882385253906 57.87425231933594 C 8.092185974121094 62.57753372192383 10.94070434570312 66.80213165283203 14.56928253173828 70.43071746826172 C 18.19786834716797 74.05929565429688 22.42246627807617 76.90781402587891 27.125732421875 78.89711761474609 C 31.99356079101562 80.95603942871094 37.16621398925781 82 42.5 82 C 47.83378601074219 82 53.00642395019531 80.95603942871094 57.87425231933594 78.89711761474609 C 62.57753372192383 76.90781402587891 66.80213165283203 74.05929565429688 70.43071746826172 70.43071746826172 C 74.05929565429688 66.80213165283203 76.90781402587891 62.57753372192383 78.89711761474609 57.87425231933594 C 80.95603942871094 53.00642395019531 82 47.83378601074219 82 42.5 C 82 37.16621398925781 80.95603942871094 31.99356079101562 78.89711761474609 27.125732421875 C 76.90781402587891 22.42246627807617 74.05929565429688 18.19786834716797 70.43071746826172 14.56928253173828 C 66.80213165283203 10.94070434570312 62.57753372192383 8.092185974121094 57.87425231933594 6.102882385253906 C 53.00643920898438 4.043960571289062 47.83378601074219 3 42.5 3 M 42.5 0 C 65.97209167480469 0 85 19.02789306640625 85 42.5 C 85 65.97209167480469 65.97209167480469 85 42.5 85 C 19.02789306640625 85 0 65.97209167480469 0 42.5 C 0 19.02789306640625 19.02789306640625 0 42.5 0 Z" stroke="none" fill="#bcac89"/>
      </g>
      <g id="bombilla_4_" data-name="bombilla (4)" transform="translate(15.025 19.034)">
        <path id="Path_989863" data-name="Path 989863" d="M231.605,459.573l-3.334-1.667-3.334,1.667a3.334,3.334,0,0,0,6.667,0Z" transform="translate(-200.797 -408.762)" fill="#8795de"/>
        <path id="Path_989864" data-name="Path 989864" d="M224.938,459.573a3.319,3.319,0,0,0,.414,1.61h5.84a3.319,3.319,0,0,0,.414-1.61l-3.334-1.667Z" transform="translate(-200.797 -408.762)" fill="#6c7fd8"/>
        <path id="Path_989865" data-name="Path 989865" d="M217.8,404.115h-6.782a1.61,1.61,0,0,1-1.61-1.61v-5.058l5-1.667,5,1.667v5.058A1.61,1.61,0,0,1,217.8,404.115Z" transform="translate(-186.932 -353.305)" fill="#c8effe"/>
        <path id="Path_989866" data-name="Path 989866" d="M217.261,404.646v3.627a1.61,1.61,0,0,1-1.61,1.61h-6.245v.537a1.61,1.61,0,0,0,1.61,1.61H217.8a1.61,1.61,0,0,0,1.61-1.61v-5.058Z" transform="translate(-186.932 -361.218)" fill="#99e6fc"/>
        <path id="Path_989867" data-name="Path 989867" d="M115.729,26.669A19.169,19.169,0,1,0,86.071,42.716a6.485,6.485,0,0,1,2.752,3.846l.663,2.65a2.146,2.146,0,0,0,2.082,1.626h9.983a2.147,2.147,0,0,0,2.082-1.626l.663-2.65a6.393,6.393,0,0,1,2.7-3.814A19.153,19.153,0,0,0,115.729,26.669Z" transform="translate(-69.085 -6.695)" fill="#ffe177"/>
        <path id="Path_989868" data-name="Path 989868" d="M207.673,48.835a19.173,19.173,0,0,1-4.293,28.344,6.393,6.393,0,0,0-2.7,3.814l-.663,2.65a2.146,2.146,0,0,1-2.082,1.626h-9.808l.211.843a2.146,2.146,0,0,0,2.082,1.626H200.4a2.147,2.147,0,0,0,2.082-1.626l.663-2.65a6.393,6.393,0,0,1,2.7-3.814,19.172,19.172,0,0,0,1.825-30.812Z" transform="translate(-167.934 -43.594)" fill="#ffd15b"/>
        <path id="Path_989869" data-name="Path 989869" d="M89.863,0A20.014,20.014,0,0,0,79.71,2.755a.8.8,0,0,0,.817,1.387A18.373,18.373,0,0,1,99.864,35.379a7.173,7.173,0,0,0-3.045,4.293l-.663,2.65a1.34,1.34,0,0,1-1.3,1.016H94V32.688a.269.269,0,0,1,.216-.263l3.275-.655A1.883,1.883,0,0,0,99,29.929V26.745a.8.8,0,0,0-1.61,0v3.183a.269.269,0,0,1-.216.263l-3.275.655a1.883,1.883,0,0,0-1.51,1.842v10.65H90.668V21.467l6.4-1.281a.268.268,0,0,1,.321.263v2.54a.8.8,0,0,0,1.61,0V20.45a1.878,1.878,0,0,0-2.246-1.842l-6.893,1.379-6.893-1.379a1.878,1.878,0,0,0-2.246,1.842v9.479a1.883,1.883,0,0,0,1.51,1.842l3.275.655a.269.269,0,0,1,.216.263v10.65h-.853a1.34,1.34,0,0,1-1.3-1.016l-.663-2.65a7.274,7.274,0,0,0-3.092-4.324A18.39,18.39,0,0,1,77.546,6.33a.8.8,0,1,0-1.079-1.2,20,20,0,0,0,2.466,31.559,5.669,5.669,0,0,1,2.412,3.368l.663,2.65a2.947,2.947,0,0,0,2.049,2.122v1.838H83.2a.8.8,0,0,0,0,1.61h.862V49.2a2.419,2.419,0,0,0,1.727,2.315,4.139,4.139,0,0,0,8.157,0A2.419,2.419,0,0,0,95.669,49.2v-.919h.862a.8.8,0,0,0,0-1.61h-.862V44.835a2.947,2.947,0,0,0,2.049-2.122l.663-2.65a5.568,5.568,0,0,1,2.361-3.334A19.976,19.976,0,0,0,89.863,0ZM85.825,30.847l-3.275-.655a.269.269,0,0,1-.216-.263V20.45a.268.268,0,0,1,.321-.263l6.4,1.281V43.338H87.334V32.688A1.883,1.883,0,0,0,85.825,30.847ZM89.863,53.34a2.533,2.533,0,0,1-2.4-1.724h4.795a2.533,2.533,0,0,1-2.4,1.724Zm1.707-5.058h2.489V49.2a.806.806,0,0,1-.8.8H86.472a.806.806,0,0,1-.8-.8v-.919h2.146a.8.8,0,1,0,0-1.61H85.668V44.948h8.391v1.724H91.57a.8.8,0,1,0,0,1.61Z" transform="translate(-62.389)"/>
        <path id="Path_989870" data-name="Path 989870" d="M202.553,209.712l1.667.333a.8.8,0,1,0,.316-1.579l-1.667-.333a.8.8,0,0,0-.316,1.579Z" transform="translate(-180.236 -185.782)"/>
        <path id="Path_989871" data-name="Path 989871" d="M204.535,245.743l-1.667-.333a.8.8,0,1,0-.316,1.579l1.667.333a.8.8,0,1,0,.316-1.579Z" transform="translate(-180.236 -219.057)"/>
        <path id="Path_989872" data-name="Path 989872" d="M282.822,208.765a.805.805,0,0,0-.947-.631l-1.667.333a.8.8,0,1,0,.316,1.579l1.667-.333A.8.8,0,0,0,282.822,208.765Z" transform="translate(-249.558 -185.782)"/>
        <path id="Path_989873" data-name="Path 989873" d="M281.875,245.408l-1.667.333a.8.8,0,1,0,.316,1.579l1.667-.333a.8.8,0,1,0-.316-1.579Z" transform="translate(-249.558 -219.056)"/>
        <path id="Path_989874" data-name="Path 989874" d="M470.077,178.609h-3.334a.8.8,0,1,0,0,1.61h3.334a.8.8,0,1,0,0-1.61Z" transform="translate(-415.932 -159.44)"/>
        <path id="Path_989875" data-name="Path 989875" d="M451.211,80.932a.8.8,0,0,0,.4-.108l2.887-1.667a.8.8,0,0,0-.8-1.394l-2.887,1.667a.8.8,0,0,0,.4,1.5Z" transform="translate(-402.066 -69.321)"/>
        <path id="Path_989876" data-name="Path 989876" d="M454.5,265.8l-2.887-1.667a.8.8,0,1,0-.8,1.394L453.7,267.2a.8.8,0,0,0,.8-1.394Z" transform="translate(-402.067 -235.693)"/>
        <path id="Path_989877" data-name="Path 989877" d="M4.944,179.414a.8.8,0,0,0-.8-.8H.8a.8.8,0,0,0,0,1.61H4.139A.8.8,0,0,0,4.944,179.414Z" transform="translate(0 -159.44)"/>
        <path id="Path_989878" data-name="Path 989878" d="M23.786,79.429,20.9,77.763a.8.8,0,0,0-.8,1.394l2.887,1.667a.8.8,0,0,0,.805-1.394Z" transform="translate(-17.578 -69.32)"/>
        <path id="Path_989879" data-name="Path 989879" d="M22.982,264.138,20.095,265.8a.8.8,0,1,0,.8,1.394l2.887-1.667a.8.8,0,1,0-.8-1.394Z" transform="translate(-17.579 -235.693)"/>
      </g>
    </g>
  </g>
</svg>
