<svg xmlns="http://www.w3.org/2000/svg" xmlns:xlink="http://www.w3.org/1999/xlink" width="108" height="108" viewBox="0 0 108 108">
  <defs>
    <filter id="Path_982547" x="0" y="0" width="108" height="108" filterUnits="userSpaceOnUse">
      <feOffset dy="3" input="SourceAlpha"/>
      <feGaussianBlur stdDeviation="3" result="blur"/>
      <feFlood flood-opacity="0.161"/>
      <feComposite operator="in" in2="blur"/>
      <feComposite in="SourceGraphic"/>
    </filter>
  </defs>
  <g id="Group_1157225" data-name="Group 1157225" transform="translate(-276 -8414)">
    <g id="Group_1157167" data-name="Group 1157167" transform="translate(80 -1515)">
      <g id="Group_1154033" data-name="Group 1154033" transform="translate(-420 6019)">
        <g id="Group_1153177" data-name="Group 1153177" transform="translate(362 3397)">
          <g id="Group_1149598" data-name="Group 1149598" transform="translate(80 315)">
            <g id="Group_1148770" data-name="Group 1148770" transform="translate(-27 -2583)">
              <g id="Group_1146954" data-name="Group 1146954" transform="translate(-415 -1202)">
                <g transform="matrix(1, 0, 0, 1, 616, 3983)" filter="url(#Path_982547)">
                  <g id="Path_982547-2" data-name="Path 982547" transform="translate(9 6)" fill="#fdf6ea">
                    <path d="M 45 88.5 C 39.12687683105469 88.5 33.43022537231445 87.35007476806641 28.06830024719238 85.08217620849609 C 22.88852500915527 82.89131164550781 18.23629951477051 79.75458526611328 14.2408504486084 75.75914764404297 C 10.24541282653809 71.76370239257812 7.108687400817871 67.11147308349609 4.917825222015381 61.93170166015625 C 2.649924993515015 56.56977462768555 1.5 50.87312316894531 1.5 45 C 1.5 39.12687683105469 2.649924993515015 33.43022537231445 4.917825222015381 28.06830024719238 C 7.108687400817871 22.88852500915527 10.24541282653809 18.23629951477051 14.2408504486084 14.2408504486084 C 18.23629951477051 10.24541282653809 22.88852500915527 7.108687400817871 28.06830024719238 4.917825222015381 C 33.43022537231445 2.649924993515015 39.12687683105469 1.5 45 1.5 C 50.87312316894531 1.5 56.56977462768555 2.649924993515015 61.93170166015625 4.917825222015381 C 67.11147308349609 7.108687400817871 71.76370239257812 10.24541282653809 75.75914764404297 14.2408504486084 C 79.75458526611328 18.23629951477051 82.89131164550781 22.88852500915527 85.08217620849609 28.06830024719238 C 87.35007476806641 33.43022537231445 88.5 39.12687683105469 88.5 45 C 88.5 50.87312316894531 87.35007476806641 56.56977462768555 85.08217620849609 61.93170166015625 C 82.89131164550781 67.11147308349609 79.75458526611328 71.76370239257812 75.75914764404297 75.75914764404297 C 71.76370239257812 79.75458526611328 67.11147308349609 82.89131164550781 61.93170166015625 85.08217620849609 C 56.56977462768555 87.35007476806641 50.87312316894531 88.5 45 88.5 Z" stroke="none"/>
                    <path d="M 45 3 C 39.32871246337891 3 33.82865524291992 4.110054016113281 28.65262985229492 6.299339294433594 C 23.65165710449219 8.414573669433594 19.15968322753906 11.44334411621094 15.301513671875 15.301513671875 C 11.44334411621094 19.15968322753906 8.414573669433594 23.65165710449219 6.299339294433594 28.65262985229492 C 4.110054016113281 33.82865524291992 3 39.32871246337891 3 45 C 3 50.67128753662109 4.110054016113281 56.17134475708008 6.299339294433594 61.34737396240234 C 8.414573669433594 66.34834289550781 11.44334411621094 70.84031677246094 15.301513671875 74.698486328125 C 19.15968322753906 78.55665588378906 23.65165710449219 81.58542633056641 28.65262985229492 83.70066070556641 C 33.82865524291992 85.88994598388672 39.32871246337891 87 45 87 C 50.67128753662109 87 56.17134475708008 85.88994598388672 61.34737396240234 83.70066070556641 C 66.34834289550781 81.58542633056641 70.84031677246094 78.55665588378906 74.698486328125 74.698486328125 C 78.55665588378906 70.84031677246094 81.58542633056641 66.34834289550781 83.70066070556641 61.34737396240234 C 85.88994598388672 56.17134475708008 87 50.67128753662109 87 45 C 87 39.32871246337891 85.88994598388672 33.82865524291992 83.70066070556641 28.65262985229492 C 81.58542633056641 23.65165710449219 78.55665588378906 19.15968322753906 74.698486328125 15.301513671875 C 70.84031677246094 11.44334411621094 66.34834289550781 8.414573669433594 61.34737396240234 6.299339294433594 C 56.17134475708008 4.110054016113281 50.67128753662109 3 45 3 M 45 0 C 69.85281372070312 0 90 20.14718627929688 90 45 C 90 69.85281372070312 69.85281372070312 90 45 90 C 20.14718627929688 90 0 69.85281372070312 0 45 C 0 20.14718627929688 20.14718627929688 0 45 0 Z" stroke="none" fill="#ecae3b"/>
                  </g>
                </g>
              </g>
            </g>
          </g>
        </g>
      </g>
      <g id="administracion-de-empresas" transform="translate(192.073 9943.156)">
        <g id="Group_1156505" data-name="Group 1156505" transform="translate(32.787 13.948)">
          <g id="Group_1156502" data-name="Group 1156502" transform="translate(8.56)">
            <path id="Path_990598" data-name="Path 990598" d="M135.456,62.2a15.662,15.662,0,0,1,4.586,1.9l2.98-1.323,3.512,3.512-1.323,2.979a15.659,15.659,0,0,1,1.9,4.587l3.04,1.17v4.967l-3.041,1.17a15.665,15.665,0,0,1-1.9,4.586l1.323,2.98-3.512,3.512-2.979-1.323a15.659,15.659,0,0,1-4.587,1.9l-1.17,3.04h-4.967l-1.17-3.041a15.662,15.662,0,0,1-4.586-1.9l-2.98,1.323-3.512-3.512,1.323-2.979a15.659,15.659,0,0,1-1.9-4.587l-3.04-1.17V75.026l3.041-1.17a15.657,15.657,0,0,1,1.9-4.586l-1.323-2.979,3.512-3.512,2.98,1.323a15.662,15.662,0,0,1,4.586-1.9l1.17-3.041h4.967Z" transform="translate(-113.453 -59.16)" fill="#ffe177" fill-rule="evenodd"/>
            <path id="Path_990599" data-name="Path 990599" d="M174.251,90.918l-2.98,1.323-.459-.459,2.794-1.241Q173.924,90.738,174.251,90.918ZM186.144,62.2a15.662,15.662,0,0,1,4.586,1.9l-.847.376a20.656,20.656,0,0,0-5.23-2.277l-1.17-3.041h1.492Zm4.587,28.717a15.659,15.659,0,0,1-4.587,1.9l-1.17,3.04h-1.492l1.17-3.04a20.65,20.65,0,0,0,5.232-2.278Zm-19.918-27.68.459-.459,2.98,1.323q-.327.18-.645.376Zm21.864,0,1.033-.459,3.512,3.512L195.9,69.27a15.659,15.659,0,0,1,1.9,4.587l3.04,1.17v4.967l-3.041,1.17a15.664,15.664,0,0,1-1.9,4.586l1.323,2.98-3.512,3.512-1.033-.459,3.053-3.053-1.323-2.98a15.662,15.662,0,0,0,1.9-4.586l3.041-1.17V75.027l-3.04-1.17a15.657,15.657,0,0,0-1.9-4.587l1.323-2.979Z" transform="translate(-164.14 -59.161)" fill="#ffd064" fill-rule="evenodd"/>
            <ellipse id="Ellipse_11749" data-name="Ellipse 11749" cx="12.133" cy="12.133" rx="12.133" ry="12.133" transform="translate(1.187 18.35) rotate(-45)" fill="#eceff1"/>
            <path id="Path_990600" data-name="Path 990600" d="M179.032,112.606a12.133,12.133,0,0,0,0,24.266c.246,0,.489-.008.731-.023a12.133,12.133,0,0,1,0-24.221C179.521,112.614,179.278,112.606,179.032,112.606Z" transform="translate(-160.683 -106.39)" fill="#d1d1d6" fill-rule="evenodd"/>
          </g>
          <g id="Group_1156503" data-name="Group 1156503" transform="translate(0 31.34)">
            <path id="Path_990601" data-name="Path 990601" d="M66.941,335.088,75.9,329.9c1.682-.974,3.392-1.665,5.241-1.066A63.036,63.036,0,0,0,90,331.553a2.489,2.489,0,0,1,1.722,2.982,2.41,2.41,0,0,1-2.982,1.722l1.2.192a5.587,5.587,0,0,0,3.841-.669l8.616-5.019c6.7-3.9,7.681,2.1,5.455,3.471l-15.637,9.628a5.734,5.734,0,0,1-4.643.655l-11.342-3.039-4.2,2.425a1.7,1.7,0,0,1-2.313-.62l-3.4-5.883a1.7,1.7,0,0,1,.618-2.312Z" transform="translate(-63.045 -328.606)" fill="#f6dccd" fill-rule="evenodd"/>
            <path id="Path_990602" data-name="Path 990602" d="M216,367.939a2.459,2.459,0,0,1-2.778,1.186c-1.858-.491-3.714-.995-5.57-1.492a.932.932,0,1,1,.482-1.8Z" transform="translate(-187.524 -361.474)" fill="#f1cbbc" fill-rule="evenodd"/>
            <path id="Path_990603" data-name="Path 990603" d="M66.94,335.088,75.9,329.9c1.682-.974,3.392-1.665,5.241-1.066,1.1.358,2.579.935,4.239,1.489l-17.36,10.023-1.7-2.943A1.7,1.7,0,0,1,66.94,335.088Z" transform="translate(-63.045 -328.606)" fill="#f1cbbc" fill-rule="evenodd"/>
            <path id="Path_990604" data-name="Path 990604" d="M44.646,355.135l7.107,12.558a1.272,1.272,0,0,1-.479,1.729l-2.418,1.368a1.272,1.272,0,0,1-1.729-.479l-7.107-12.558a1.272,1.272,0,0,1,.479-1.729l2.418-1.368A1.272,1.272,0,0,1,44.646,355.135Z" transform="translate(-39.857 -351.481)" fill="#d1d1d6" fill-rule="evenodd"/>
            <path id="Path_990605" data-name="Path 990605" d="M73.546,363.764l1.258,2.223,1.244,2.2a1.272,1.272,0,0,1-.475,1.727l.864-.489a1.272,1.272,0,0,0,.479-1.729l-1.248-2.206L73.16,361.06l-2.509-4.434-.844-1.491a1.274,1.274,0,0,0-1.478-.587l1.461,2.581,2.506,4.429,1.248,2.206Z" transform="translate(-65.018 -351.482)" fill="#b1b1b5" fill-rule="evenodd"/>
          </g>
          <g id="Group_1156504" data-name="Group 1156504" transform="translate(19.173 13.358)">
            <path id="Path_990606" data-name="Path 990606" d="M205.4,232h1.886a.7.7,0,0,1,.7.7v2.377a.7.7,0,0,1-.7.7H205.4a.7.7,0,0,1-.7-.7V232.7A.7.7,0,0,1,205.4,232Z" transform="translate(-204.699 -225.253)" fill="#fe646f" fill-rule="evenodd"/>
            <path id="Path_990607" data-name="Path 990607" d="M218.261,232h1.007a.7.7,0,0,1,.7.7v2.377a.7.7,0,0,1-.7.7h-1.007a.7.7,0,0,0,.7-.7V232.7A.7.7,0,0,0,218.261,232Z" transform="translate(-216.684 -225.253)" fill="#fd4755" fill-rule="evenodd"/>
            <path id="Path_990608" data-name="Path 990608" d="M257.8,203.63h1.886a.7.7,0,0,1,.7.7V210a.7.7,0,0,1-.7.7H257.8a.7.7,0,0,1-.7-.7v-5.676A.7.7,0,0,1,257.8,203.63Z" transform="translate(-251.009 -200.184)" fill="#6cf5c2" fill-rule="evenodd"/>
            <path id="Path_990609" data-name="Path 990609" d="M270.666,203.63h1.007a.7.7,0,0,1,.7.7V210a.7.7,0,0,1-.7.7h-1.007a.7.7,0,0,0,.7-.7v-5.676A.7.7,0,0,0,270.666,203.63Z" transform="translate(-262.993 -200.184)" fill="#00e499" fill-rule="evenodd"/>
            <path id="Path_990610" data-name="Path 990610" d="M310.208,174.005h1.886a.7.7,0,0,1,.7.7v9.122a.7.7,0,0,1-.7.7h-1.886a.7.7,0,0,1-.7-.7V174.7A.7.7,0,0,1,310.208,174.005Z" transform="translate(-297.319 -174.005)" fill="#8ac9fe" fill-rule="evenodd"/>
            <path id="Path_990611" data-name="Path 990611" d="M323.072,174.005h1.007a.7.7,0,0,1,.7.7v9.122a.7.7,0,0,1-.7.7h-1.007a.7.7,0,0,0,.7-.7V174.7A.7.7,0,0,0,323.072,174.005Z" transform="translate(-309.304 -174.005)" fill="#60b7ff" fill-rule="evenodd"/>
          </g>
        </g>
        <path id="Path_990612" data-name="Path 990612" d="M65.082,36.894H66.5V28.237H65.082Zm-1.861.93V27.306a.93.93,0,0,1,.931-.93h3.282a.93.93,0,0,1,.93.93V37.824a.93.93,0,0,1-.93.931H64.152A.93.93,0,0,1,63.221,37.824Zm-2.814-6.141h-1.42v5.211h1.42Zm1.861-.931v7.072a.931.931,0,0,1-.931.931H58.057a.931.931,0,0,1-.931-.931V30.752a.931.931,0,0,1,.931-.931h3.281A.931.931,0,0,1,62.268,30.752Zm-9.377,6.141h1.421V34.982H52.891Zm-.931,1.861a.931.931,0,0,1-.931-.931V34.052a.931.931,0,0,1,.931-.931h3.283a.93.93,0,0,1,.93.931v3.773a.93.93,0,0,1-.93.931Zm1.669-7.062a.93.93,0,0,1-.572-1.665l5.488-4.27a.93.93,0,0,1,.309-1.807h0l2.328,0a.93.93,0,0,1,.9,1.157l-.568,2.257a.93.93,0,0,1-.9.7.9.9,0,0,1-.228-.028.929.929,0,0,1-.7-.818L54.2,31.5a.928.928,0,0,1-.571.2ZM35.946,50.82a.863.863,0,1,0,.979.729A.864.864,0,0,0,35.946,50.82ZM48.495,32.3A11.2,11.2,0,1,1,59.7,43.5a11.216,11.216,0,0,1-11.2-11.2Zm-1.861,0A13.064,13.064,0,1,1,59.7,45.362,13.078,13.078,0,0,1,46.633,32.3ZM77.491,47.8c-.665-1.111-2.49-.942-4.882.451l-8.618,5.019a6.485,6.485,0,0,1-4.457.783l-1.071-.174-.019,0-.019,0c-1.345-.275-2.589-.631-3.908-1.007-.6-.171-1.218-.348-1.847-.516a.93.93,0,1,1,.482-1.8c.644.172,1.271.351,1.877.524,1.269.362,2.468.7,3.728.964a1.454,1.454,0,0,0,1.808-1.06,1.548,1.548,0,0,0-1.057-1.839,44.844,44.844,0,0,1-7.091-2.1c-.7-.252-1.3-.47-1.823-.639-1.568-.509-3.083.173-4.488.986L39.826,51.02l4.1,7.246,1.579-.912a.927.927,0,0,1,.706-.093L57.555,60.3a4.823,4.823,0,0,0,3.915-.549l15.639-9.629a1.835,1.835,0,0,0,.383-2.327ZM43.876,61.955a.342.342,0,0,1-.127.46L41.33,63.784a.336.336,0,0,1-.256.03.34.34,0,0,1-.2-.158L33.761,51.1a.342.342,0,0,1,.127-.461l2.418-1.368a.327.327,0,0,1,.163-.043.373.373,0,0,1,.094.013.332.332,0,0,1,.2.158ZM47.465,44.7l-1.389-1.389,1.063-2.395a.932.932,0,0,0-.059-.866,14.713,14.713,0,0,1-1.789-4.314.928.928,0,0,0-.57-.653l-2.445-.941V30.454l2.445-.941a.929.929,0,0,0,.571-.653,14.722,14.722,0,0,1,1.788-4.313.928.928,0,0,0,.059-.866l-1.063-2.4,2.608-2.609,2.4,1.064a.93.93,0,0,0,.865-.058,14.713,14.713,0,0,1,4.313-1.788.931.931,0,0,0,.654-.571l.941-2.444h3.688l.941,2.444a.932.932,0,0,0,.654.571,14.714,14.714,0,0,1,4.313,1.788.93.93,0,0,0,.865.058l2.4-1.064,2.609,2.609L72.255,23.68a.933.933,0,0,0,.058.865A14.715,14.715,0,0,1,74.1,28.86a.93.93,0,0,0,.57.653l2.445.941v3.689l-2.445.941a.929.929,0,0,0-.571.653,14.713,14.713,0,0,1-1.788,4.313.93.93,0,0,0-.058.865l1.064,2.4L70.711,45.92l-2.4-1.064a.928.928,0,0,0-.865.058A14.712,14.712,0,0,1,63.135,46.7a.931.931,0,0,0-.652.571l-.575,1.492a3.564,3.564,0,0,0-1.878-1.416.866.866,0,0,0-.121-.031,43.012,43.012,0,0,1-6.858-2.033c-.684-.248-1.331-.481-1.881-.659a5.82,5.82,0,0,0-3.7.074Zm14.676,7.372a3.561,3.561,0,0,0,.188-.506.929.929,0,0,0,.719-.584l1-2.591A16.575,16.575,0,0,0,68,46.752l1.974.877-6.918,4.03a4.689,4.689,0,0,1-.914.413ZM79.122,46.9a3.689,3.689,0,0,1-1.037,4.807L62.446,61.338a6.654,6.654,0,0,1-3.519,1.011,7.157,7.157,0,0,1-1.854-.25L46.1,59.16l-1.26.727.651,1.152a2.2,2.2,0,0,1-.831,3L42.246,65.4a2.18,2.18,0,0,1-1.077.285,2.227,2.227,0,0,1-.593-.081,2.191,2.191,0,0,1-1.327-1.035l-7.108-12.56a2.2,2.2,0,0,1,.83-3l2.418-1.369a2.2,2.2,0,0,1,3,.83l.522.922,6.266-3.628c.154-.088.31-.176.468-.263l-1.334-1.335a.93.93,0,0,1-.193-1.035L45.244,40.6A16.5,16.5,0,0,1,43.6,36.647l-2.591-1a.93.93,0,0,1-.6-.868V29.815a.93.93,0,0,1,.6-.868l2.591-1A16.541,16.541,0,0,1,45.244,24l-1.128-2.54a.93.93,0,0,1,.193-1.035l3.511-3.513a.933.933,0,0,1,1.036-.192L51.4,17.844a16.571,16.571,0,0,1,3.952-1.639l1-2.592a.93.93,0,0,1,.868-.6H62.18a.931.931,0,0,1,.869.6l1,2.592A16.574,16.574,0,0,1,68,17.844l2.539-1.128a.933.933,0,0,1,1.036.192l3.512,3.512a.931.931,0,0,1,.193,1.036L74.151,24a16.5,16.5,0,0,1,1.639,3.953l2.591,1a.93.93,0,0,1,.6.868v4.967a.93.93,0,0,1-.6.868l-2.591,1A16.546,16.546,0,0,1,74.151,40.6l1.128,2.54a.931.931,0,0,1-.193,1.035L73.53,45.732a5.042,5.042,0,0,1,4.234-.12A22.182,22.182,0,0,0,82.137,32.3,22.413,22.413,0,0,0,79.1,21.018a.931.931,0,0,1,1.608-.937A24.29,24.29,0,0,1,84,32.3,24.027,24.027,0,0,1,79.122,46.9ZM38.846,44.783A24.3,24.3,0,0,1,73.695,12.434l-.384-1.346a.931.931,0,0,1,1.79-.511l1.183,4.146a.931.931,0,0,1-.862,1.185l-4.308.155h-.035a.931.931,0,0,1-.032-1.86l1.833-.066A22.443,22.443,0,0,0,40.442,43.826a.93.93,0,1,1-1.6.957Z" transform="translate(0)" fill="#242222" fill-rule="evenodd"/>
      </g>
    </g>
  </g>
</svg>
