<svg xmlns="http://www.w3.org/2000/svg" xmlns:xlink="http://www.w3.org/1999/xlink" width="108" height="108" viewBox="0 0 108 108">
  <defs>
    <filter id="Fondo" x="0" y="0" width="108" height="108" filterUnits="userSpaceOnUse">
      <feOffset dy="3" input="SourceAlpha"/>
      <feGaussianBlur stdDeviation="3" result="blur"/>
      <feFlood flood-opacity="0.161"/>
      <feComposite operator="in" in2="blur"/>
      <feComposite in="SourceGraphic"/>
    </filter>
  </defs>
  <g id="Group_1157221" data-name="Group 1157221" transform="translate(-127.218 -1478)">
    <g id="Icono" transform="translate(136.218 789)">
      <g transform="matrix(1, 0, 0, 1, -9, 689)" filter="url(#Fondo)">
        <g id="Fondo-2" data-name="Fondo" transform="translate(9 6)" fill="#effdfc" stroke="#70efea" stroke-width="3">
          <circle cx="45" cy="45" r="45" stroke="none"/>
          <circle cx="45" cy="45" r="43.5" fill="none"/>
        </g>
      </g>
      <g id="proteger" transform="translate(15.286 707.826)">
        <path id="Path_990655" data-name="Path 990655" d="M94.411,284.629l-12.405,8.3-3.7-.208-.145-1.455a4.724,4.724,0,0,0-4.038-4.21L61.01,285.909c-1.285-.182-3.989-1.611-6.108-2.827a13.488,13.488,0,0,0-6.6-1.792l-6.668-.055v16.3l18.875,7.148a5.13,5.13,0,0,0,2.195.146l.013,0,19-2.739a8.411,8.411,0,0,0,3.989-1.788l12.282-11.046a2.933,2.933,0,0,0-3.583-4.627Zm0,0" transform="translate(-36.478 -245.957)" fill="#fae0c1"/>
        <path id="Path_990656" data-name="Path 990656" d="M98.47,312.576a2.925,2.925,0,0,0-.268-.338l-12.491,9.173a8.408,8.408,0,0,1-3.989,1.787l-19,2.739-.013,0a5.137,5.137,0,0,1-2.195-.146l-18.875-7.147V324.7l18.875,7.148a5.131,5.131,0,0,0,2.195.146l.013,0,19-2.739a8.411,8.411,0,0,0,3.989-1.788l12.282-11.046A2.933,2.933,0,0,0,98.47,312.576Zm0,0" transform="translate(-36.478 -273.12)" fill="#efd0af"/>
        <path id="Path_990657" data-name="Path 990657" d="M16.612,270.79H8.771a1.283,1.283,0,0,1-1.283-1.283v-23.94a1.283,1.283,0,0,1,1.283-1.283h7.841a1.283,1.283,0,0,1,1.283,1.283v23.94A1.283,1.283,0,0,1,16.612,270.79Zm0,0" transform="translate(-6.56 -213.585)" fill="#f43b45"/>
        <path id="Path_990658" data-name="Path 990658" d="M47.478,244.285H42.719V270.79h4.759a1.283,1.283,0,0,0,1.283-1.283v-23.94A1.283,1.283,0,0,0,47.478,244.285Zm0,0" transform="translate(-37.426 -213.585)" fill="#cf3735"/>
        <path id="Path_990659" data-name="Path 990659" d="M153.529,16.3a9.076,9.076,0,0,1-5.559-7.592.9.9,0,0,0-.9-.814l-9.422.055h-.191l-9.422.055a.9.9,0,0,0-.892.839,9.077,9.077,0,0,1-5.477,7.647,1.3,1.3,0,0,0-.777,1.327c.433,4.136,2.951,18.219,16.683,24.552a.427.427,0,0,0,.183.04.434.434,0,0,0,.182-.042c13.656-6.494,16.009-20.6,16.394-24.746a1.3,1.3,0,0,0-.8-1.323Zm0,0" transform="translate(-105.905 -6.479)" fill="#75cff2"/>
        <path id="Path_990660" data-name="Path 990660" d="M251.183,16.3a9.076,9.076,0,0,1-5.559-7.592.9.9,0,0,0-.9-.814l-5.187.03a9.076,9.076,0,0,0,5.587,8.373,1.309,1.309,0,0,1,.808,1.325c-.356,3.839-2.407,16.248-13.588,23.211a28.259,28.259,0,0,0,2.882,1.537.435.435,0,0,0,.183.039.426.426,0,0,0,.182-.042c13.656-6.494,16.01-20.6,16.394-24.746a1.3,1.3,0,0,0-.8-1.323Zm0,0" transform="translate(-203.56 -6.479)" fill="#53b4e4"/>
        <path id="Path_990661" data-name="Path 990661" d="M163.65,63.242c-9.4-5.1-12.121-14.559-12.9-19.2a.5.5,0,0,1,.226-.505,12.144,12.144,0,0,0,5.258-6.906.5.5,0,0,1,.477-.357l14.048-.082a.5.5,0,0,1,.481.351,12.146,12.146,0,0,0,5.339,6.844.5.5,0,0,1,.232.5c-.726,4.65-3.339,14.141-12.676,19.35a.5.5,0,0,1-.482,0Zm0,0" transform="translate(-132.066 -31.27)" fill="#e1e0de"/>
        <path id="Path_990662" data-name="Path 990662" d="M247.929,43.387a12.148,12.148,0,0,1-5.339-6.844.5.5,0,0,0-.48-.351l-5.664.033a12.145,12.145,0,0,0,5.431,7.163.494.494,0,0,1,.232.5c-.649,4.156-2.806,12.181-9.925,17.558a23.764,23.764,0,0,0,2.82,1.8.5.5,0,0,0,.482,0c9.336-5.209,11.949-14.7,12.676-19.35a.5.5,0,0,0-.232-.5Zm0,0" transform="translate(-203.42 -31.27)" fill="#d6d6d6"/>
        <path id="Path_990663" data-name="Path 990663" d="M33.791,394.026a2.358,2.358,0,1,1-2.358-2.358A2.358,2.358,0,0,1,33.791,394.026Zm0,0" transform="translate(-25.472 -342.709)" fill="#ededed"/>
        <path id="Path_990664" data-name="Path 990664" d="M217.734,101.381a.938.938,0,0,0,1.414-.161l6.184-9.333a.929.929,0,1,0-1.549-1.027l-5.573,8.41-3.1-2.94a.929.929,0,1,0-1.279,1.348Zm0,0" transform="translate(-187.091 -78.803)"/>
        <path id="Path_990665" data-name="Path 990665" d="M130.622,36.75a1.376,1.376,0,0,0,.57.124h.008a1.36,1.36,0,0,0,.576-.132c14.128-6.719,16.523-21.216,16.92-25.5a2.221,2.221,0,0,0-1.37-2.266,8.12,8.12,0,0,1-4.99-6.814A1.835,1.835,0,0,0,140.515.5H140.5L121.47.611a1.82,1.82,0,0,0-1.813,1.7,8.121,8.121,0,0,1-4.917,6.864A2.213,2.213,0,0,0,113.4,11.45c.447,4.278,3.011,18.747,17.218,25.3ZM115.471,10.88a9.971,9.971,0,0,0,6.037-8.41l18.98-.111a9.972,9.972,0,0,0,6.126,8.335.374.374,0,0,1,.232.379c-.373,4.014-2.6,17.549-15.657,23.891-13.13-6.188-15.516-19.7-15.936-23.706a.366.366,0,0,1,.219-.377Zm0,0" transform="translate(-99.345 0)"/>
        <path id="Path_990666" data-name="Path 990666" d="M143.949,40.822a.98.98,0,0,0,1.141.653.93.93,0,0,0,.653-1.14c-.237-.872-.435-1.756-.592-2.632a13.067,13.067,0,0,0,5.316-6.967l13.418-.079a13.066,13.066,0,0,0,5.4,6.9c-.146.878-.334,1.765-.561,2.641a.929.929,0,1,0,1.8.466c.266-1.028.483-2.071.644-3.1a1.421,1.421,0,0,0-.67-1.441,11.214,11.214,0,0,1-4.931-6.321A1.437,1.437,0,0,0,164.2,28.8h-.009l-14.048.082a1.437,1.437,0,0,0-1.362,1.024,11.214,11.214,0,0,1-4.857,6.378,1.42,1.42,0,0,0-.653,1.449c.173,1.027.4,2.067.68,3.091Zm0,0" transform="translate(-125.503 -24.791)"/>
        <path id="Path_990667" data-name="Path 990667" d="M183.063,147.6a.928.928,0,0,0-1.213.5,23.4,23.4,0,0,1-10.106,11.764,23.412,23.412,0,0,1-10.251-11.664.929.929,0,0,0-1.71.728,25.2,25.2,0,0,0,11.282,12.683,1.422,1.422,0,0,0,1.378-.008,25.2,25.2,0,0,0,11.124-12.8.928.928,0,0,0-.5-1.213Zm0,0" transform="translate(-139.923 -128.819)"/>
        <path id="Path_990668" data-name="Path 990668" d="M24.873,384.273a3.287,3.287,0,1,0,3.288,3.287A3.291,3.291,0,0,0,24.873,384.273Zm0,4.716A1.429,1.429,0,1,1,26.3,387.56,1.43,1.43,0,0,1,24.873,388.989Zm0,0" transform="translate(-18.911 -336.231)"/>
        <path id="Path_990669" data-name="Path 990669" d="M62.762,246.053a3.87,3.87,0,0,0-5.345-1.034l-12.146,8.129L42.678,253l-.066-.664a5.639,5.639,0,0,0-4.833-5.038l-.049-.006-13.088-1.147c-.443-.069-1.86-.476-5.755-2.71a14.453,14.453,0,0,0-6.622-1.905V239.1a2.214,2.214,0,0,0-2.212-2.212H2.212A2.215,2.215,0,0,0,0,239.1v23.94a2.215,2.215,0,0,0,2.212,2.212h7.841a2.215,2.215,0,0,0,2.212-2.212v-.66l11.441,4.333a6.4,6.4,0,0,0,2.663.2l19.01-2.74.014,0a9.346,9.346,0,0,0,4.43-1.985l.034-.029,12.277-11.042a3.87,3.87,0,0,0,.629-5.06Zm-1.867,3.674L48.63,260.758a7.487,7.487,0,0,1-3.525,1.575l-19,2.738-.016,0h-.009a4.172,4.172,0,0,1-1.76-.112L12.265,260.4V249.785a.929.929,0,0,0-1.858,0v13.257a.354.354,0,0,1-.354.354H2.212a.354.354,0,0,1-.354-.354V239.1a.354.354,0,0,1,.354-.354h7.841a.354.354,0,0,1,.354.354v6.485a.929.929,0,0,0,1.858,0v-2.195a12.585,12.585,0,0,1,5.7,1.657c4.7,2.694,6.009,2.88,6.44,2.941l.049.006,13.089,1.147a3.786,3.786,0,0,1,3.221,3.378l.049.5L23.288,254.1l-.035,0a2.117,2.117,0,0,1-1.445-.756.929.929,0,1,0-1.427,1.19,4.024,4.024,0,0,0,2.707,1.417c.574.06,18.746-1.131,18.746-1.131l3.643.2a.926.926,0,0,0,.569-.156l12.407-8.3a2,2,0,0,1,2.443,3.165Zm0,0" transform="translate(0 -207.107)"/>
      </g>
    </g>
  </g>
</svg>
