<svg xmlns="http://www.w3.org/2000/svg" xmlns:xlink="http://www.w3.org/1999/xlink" width="103" height="103" viewBox="0 0 103 103">
  <defs>
    <filter id="Path_978624" x="0" y="0" width="103" height="103" filterUnits="userSpaceOnUse">
      <feOffset dy="3" input="SourceAlpha"/>
      <feGaussianBlur stdDeviation="3" result="blur"/>
      <feFlood flood-opacity="0.161"/>
      <feComposite operator="in" in2="blur"/>
      <feComposite in="SourceGraphic"/>
    </filter>
  </defs>
  <g id="Group_1157201" data-name="Group 1157201" transform="translate(-171 -300)">
    <g id="Group_1151298" data-name="Group 1151298" transform="translate(-30 -20)">
      <g id="Group_1151609" data-name="Group 1151609">
        <g transform="matrix(1, 0, 0, 1, 201, 320)" filter="url(#Path_978624)">
          <g id="Path_978624-2" data-name="Path 978624" transform="translate(9 6)" fill="#ffd8d1">
            <path d="M 42.5 83.5 C 36.96437835693359 83.5 31.59512901306152 82.41617584228516 26.54141235351562 80.27863311767578 C 21.65934181213379 78.21369171142578 17.27447128295898 75.25723266601562 13.50862312316895 71.49137878417969 C 9.742764472961426 67.72553253173828 6.786305904388428 63.34066009521484 4.721364498138428 58.45858764648438 C 2.583823442459106 53.40486907958984 1.5 48.03562164306641 1.5 42.5 C 1.5 36.96437835693359 2.583823442459106 31.59512901306152 4.721364498138428 26.54141235351562 C 6.786305904388428 21.65934181213379 9.742764472961426 17.27447128295898 13.50862312316895 13.50862312316895 C 17.27447128295898 9.742764472961426 21.65934181213379 6.786305904388428 26.54141235351562 4.721364498138428 C 31.59512901306152 2.583823442459106 36.96437835693359 1.5 42.5 1.5 C 48.03562164306641 1.5 53.40486907958984 2.583823442459106 58.45858764648438 4.721364498138428 C 63.34066009521484 6.786305904388428 67.72553253173828 9.742764472961426 71.49137878417969 13.50862312316895 C 75.25723266601562 17.27447128295898 78.21369171142578 21.65934181213379 80.27863311767578 26.54141235351562 C 82.41617584228516 31.59512901306152 83.5 36.96437835693359 83.5 42.5 C 83.5 48.03562164306641 82.41617584228516 53.40486907958984 80.27863311767578 58.45858764648438 C 78.21369171142578 63.34066009521484 75.25723266601562 67.72553253173828 71.49137878417969 71.49137878417969 C 67.72553253173828 75.25723266601562 63.34066009521484 78.21369171142578 58.45858764648438 80.27863311767578 C 53.40486907958984 82.41617584228516 48.03562164306641 83.5 42.5 83.5 Z" stroke="none"/>
            <path d="M 42.5 3 C 37.16621398925781 3 31.99356079101562 4.043960571289062 27.125732421875 6.102882385253906 C 22.42246627807617 8.092185974121094 18.19785308837891 10.94070434570312 14.56928253173828 14.56928253173828 C 10.94070434570312 18.19785308837891 8.092185974121094 22.42246627807617 6.102882385253906 27.125732421875 C 4.043960571289062 31.99356079101562 3 37.16621398925781 3 42.5 C 3 47.83378601074219 4.043960571289062 53.00643920898438 6.102882385253906 57.87425231933594 C 8.092185974121094 62.57753372192383 10.94070434570312 66.80213165283203 14.56928253173828 70.43071746826172 C 18.19786834716797 74.05929565429688 22.42246627807617 76.90781402587891 27.125732421875 78.89711761474609 C 31.99356079101562 80.95603942871094 37.16621398925781 82 42.5 82 C 47.83378601074219 82 53.00642395019531 80.95603942871094 57.87425231933594 78.89711761474609 C 62.57753372192383 76.90781402587891 66.80213165283203 74.05929565429688 70.43071746826172 70.43071746826172 C 74.05929565429688 66.80213165283203 76.90781402587891 62.57753372192383 78.89711761474609 57.87425231933594 C 80.95603942871094 53.00642395019531 82 47.83378601074219 82 42.5 C 82 37.16621398925781 80.95603942871094 31.99356079101562 78.89711761474609 27.125732421875 C 76.90781402587891 22.42246627807617 74.05929565429688 18.19786834716797 70.43071746826172 14.56928253173828 C 66.80213165283203 10.94070434570312 62.57753372192383 8.092185974121094 57.87425231933594 6.102882385253906 C 53.00643920898438 4.043960571289062 47.83378601074219 3 42.5 3 M 42.5 0 C 65.97209167480469 0 85 19.02789306640625 85 42.5 C 85 65.97209167480469 65.97209167480469 85 42.5 85 C 19.02789306640625 85 0 65.97209167480469 0 42.5 C 0 19.02789306640625 19.02789306640625 0 42.5 0 Z" stroke="none" fill="#ff7e67"/>
          </g>
        </g>
        <g id="bombilla" transform="translate(225.111 343.716)">
          <path id="Path_988815" data-name="Path 988815" d="M119.016,26.143a18.635,18.635,0,1,0-25.052,17.5v6.163a3.859,3.859,0,0,0,3.858,3.858h5.116a3.858,3.858,0,0,0,3.858-3.858V43.644a18.642,18.642,0,0,0,12.219-17.5Zm0,0" transform="translate(-72.992 -6.704)" fill="#ffe469"/>
          <path id="Path_988816" data-name="Path 988816" d="M237.888,7.508a18.758,18.758,0,0,0-2.142.123,18.638,18.638,0,0,1,4.274,36.012v6.163a3.858,3.858,0,0,1-3.858,3.858h4.284a3.858,3.858,0,0,0,3.858-3.858V43.644a18.638,18.638,0,0,0-6.416-36.136Zm0,0" transform="translate(-210.499 -6.704)" fill="#ffda30"/>
          <path id="Path_988817" data-name="Path 988817" d="M144.9,187.994a9.9,9.9,0,0,0,6.164,2.439.573.573,0,0,0,.61-.61,8.344,8.344,0,0,0-8.6-8.6.573.573,0,0,0-.61.61A9.9,9.9,0,0,0,144.9,187.994Zm0,0" transform="translate(-127.205 -161.811)" fill="#09a66d"/>
          <path id="Path_988818" data-name="Path 988818" d="M151.682,189.82a8.344,8.344,0,0,0-8.6-8.6.573.573,0,0,0-.61.55,8.028,8.028,0,0,1,3.24,1.89,9.9,9.9,0,0,1,2.44,6.164.589.589,0,0,1,0,.06,12.329,12.329,0,0,0,2.924.55A.573.573,0,0,0,151.682,189.82Zm0,0" transform="translate(-127.211 -161.808)" fill="#028f5d"/>
          <path id="Path_988819" data-name="Path 988819" d="M289.755,187.994a9.9,9.9,0,0,1-6.161,2.439.576.576,0,0,1-.613-.613,8.343,8.343,0,0,1,8.6-8.6.576.576,0,0,1,.613.613A9.9,9.9,0,0,1,289.755,187.994Zm0,0" transform="translate(-252.674 -161.811)" fill="#09a66d"/>
          <path id="Path_988820" data-name="Path 988820" d="M291.581,181.22a12.075,12.075,0,0,0-3.4.716,9.551,9.551,0,0,1-2.393,5.629,7.76,7.76,0,0,1-2.764,1.724c-.022.2-.036.377-.046.531a.576.576,0,0,0,.613.613,8.342,8.342,0,0,0,8.6-8.6.576.576,0,0,0-.613-.613Zm0,0" transform="translate(-252.674 -161.81)" fill="#028f5d"/>
          <path id="Path_988821" data-name="Path 988821" d="M233.262,86.564a9.919,9.919,0,0,1-2.648,6.1.556.556,0,0,1-.833,0,9.919,9.919,0,0,1-2.648-6.1,9.919,9.919,0,0,1,2.648-6.1.555.555,0,0,1,.833,0A9.919,9.919,0,0,1,233.262,86.564Zm0,0" transform="translate(-202.808 -71.679)" fill="#09a66d"/>
          <path id="Path_988822" data-name="Path 988822" d="M241.434,80.464a.555.555,0,0,0-.833,0,12.55,12.55,0,0,0-1.35,1.852,7.6,7.6,0,0,1,0,8.5,12.573,12.573,0,0,0,1.35,1.852.556.556,0,0,0,.833,0,9.919,9.919,0,0,0,2.648-6.1,9.919,9.919,0,0,0-2.648-6.1Zm0,0" transform="translate(-213.628 -71.679)" fill="#028f5d"/>
          <path id="Path_988823" data-name="Path 988823" d="M204.807,387.857h-5.116A3.858,3.858,0,0,1,195.832,384v-6.273a3.858,3.858,0,0,1,3.858-3.858h5.116a3.858,3.858,0,0,1,3.858,3.858V384A3.858,3.858,0,0,1,204.807,387.857Zm0,0" transform="translate(-174.859 -333.827)" fill="#f0f0f0"/>
          <path id="Path_988824" data-name="Path 988824" d="M240.341,373.867h-4.712a3.858,3.858,0,0,1,3.858,3.858V384a3.858,3.858,0,0,1-3.858,3.858h4.712A3.858,3.858,0,0,0,244.2,384v-6.273A3.858,3.858,0,0,0,240.341,373.867Zm0,0" transform="translate(-210.394 -333.827)" fill="#e8e8e8"/>
          <g id="Group_1150814" data-name="Group 1150814" transform="translate(18.307 39.313)">
            <path id="Path_988825" data-name="Path 988825" d="M188.251,370.688l-15.394.912a1.806,1.806,0,0,1-.214-3.606l15.394-.912a1.806,1.806,0,0,1,.214,3.606Zm0,0" transform="translate(-170.945 -367.079)" fill="#9e9e9e"/>
            <path id="Path_988826" data-name="Path 988826" d="M188.251,438.519l-15.394.912a1.806,1.806,0,1,1-.214-3.605l15.394-.912a1.806,1.806,0,1,1,.214,3.605Zm0,0" transform="translate(-170.945 -427.646)" fill="#9e9e9e"/>
            <path id="Path_988827" data-name="Path 988827" d="M188.251,438.519l-15.394.912a1.806,1.806,0,1,1-.214-3.605l15.394-.912a1.806,1.806,0,1,1,.214,3.605Zm0,0" transform="translate(-170.945 -427.646)" fill="#9e9e9e"/>
          </g>
          <path id="Path_988828" data-name="Path 988828" d="M109.535,30.688A19.445,19.445,0,0,0,86.083,1.541a.8.8,0,0,0,.628,1.478A17.837,17.837,0,1,1,99.82,36.186a.8.8,0,0,0-.526.754v1.714l-4.81.285V31.693l2.41-2.25c1.107-.033,4.682-.328,7.046-2.691,2.766-2.767,2.7-7.193,2.695-7.38a.8.8,0,0,0-.785-.785c-.187,0-4.614-.072-7.38,2.7-2.334,2.334-2.651,5.851-2.69,7l-1.3,1.209v-7.74a13.154,13.154,0,0,0,1.892-2.629.8.8,0,0,0-1.412-.766,11.509,11.509,0,0,1-1.2,1.779c-.026,0-.053,0-.08,0s-.054,0-.079,0a8.866,8.866,0,0,1-2.182-5.254,8.961,8.961,0,0,1,2.262-5.352,8.916,8.916,0,0,1,2.26,5.352c0,.186-.009.377-.028.566a.8.8,0,0,0,1.6.157c.024-.241.036-.485.036-.723,0-3.912-3.177-6.995-3.313-7.124a.8.8,0,0,0-1.11,0c-.136.129-3.313,3.212-3.313,7.124,0,3.323,2.291,6.045,3.065,6.871v7.736l-1.3-1.215c-.041-1.163-.361-4.667-2.69-7-2.767-2.767-7.194-2.7-7.38-2.695a.8.8,0,0,0-.785.785c0,.187-.072,4.614,2.695,7.38,2.371,2.371,5.96,2.66,7.055,2.692l2.4,2.25v7.342l-4.811.285V36.94a.8.8,0,0,0-.527-.754A17.848,17.848,0,0,1,77.8,11.315,18,18,0,0,1,83.023,5.14a.8.8,0,0,0-.961-1.287,19.62,19.62,0,0,0-5.689,6.729,19.45,19.45,0,0,0,10.089,26.91v1.923c-3.418.074-3.467,5.3,0,5.225v2.04c-3.556.116-3.271,5.462.329,5.208a4.667,4.667,0,0,0,4.333,2.946h5.116a4.669,4.669,0,0,0,4.577-3.777l1.138-.067c3.341-.2,3.071-5.408-.309-5.209l-.744.044V43.9c0-.038,0-.075,0-.112l1.056-.062c3.337-.2,3.079-5.41-.309-5.209l-.744.044V37.493a19.388,19.388,0,0,0,8.635-6.8Zm-9.929-8.272a8.958,8.958,0,0,1,5.384-2.184,8.922,8.922,0,0,1-2.186,5.382A8.959,8.959,0,0,1,97.42,27.8a8.917,8.917,0,0,1,2.186-5.382ZM82.373,20.233a8.956,8.956,0,0,1,5.382,2.184,8.873,8.873,0,0,1,2.173,5.268.82.82,0,0,0-.077.071c-.01.011-.019.023-.028.034a8.836,8.836,0,0,1-5.266-2.175,8.96,8.96,0,0,1-2.184-5.382ZM101.8,40.117a1,1,0,0,1,.057,2l-15.394.912a1,1,0,0,1-1.062-.991,1,1,0,0,1,.943-1.01l15.394-.912.061,0Zm.683,7.534a1.014,1.014,0,0,1-.625,1.734l-3.834.227a.8.8,0,0,0,.1,1.6l1.011-.06a3.06,3.06,0,0,1-2.892,2.071H91.122a3.056,3.056,0,0,1-2.593-1.442l5.949-.353a.8.8,0,0,0-.095-1.6l-7.919.469a1,1,0,0,1-.119-2l15.394-.912a.994.994,0,0,1,.744.268ZM88.067,46.585V44.548l11.226-.665c0,.005,0,.011,0,.017v2.02Zm0,0" transform="translate(-66.291)"/>
          <path id="Path_988829" data-name="Path 988829" d="M75.666,6.433a.8.8,0,0,0,1.15-1.122L73.673,2.093a.8.8,0,0,0-1.149,1.122Zm0,0" transform="translate(-64.553 -1.653)"/>
          <path id="Path_988830" data-name="Path 988830" d="M33.506,54.27l3.868,2.3a.8.8,0,0,0,.82-1.381l-3.869-2.3a.8.8,0,0,0-.82,1.382Zm0,0" transform="translate(-29.577 -47.119)"/>
          <path id="Path_988831" data-name="Path 988831" d="M9.054,113.768l4.331,1.216a.8.8,0,0,0,.434-1.547l-4.331-1.216a.8.8,0,0,0-.434,1.547Zm0,0" transform="translate(-7.582 -100.172)"/>
          <path id="Path_988832" data-name="Path 988832" d="M5.274,177.664a.8.8,0,0,0,.01-1.606L.785,176a.8.8,0,0,0-.019,1.606l4.5.054Zm0,0" transform="translate(0 -157.154)"/>
          <path id="Path_988833" data-name="Path 988833" d="M14.162,230.038a.8.8,0,0,0-.977-.58l-4.359,1.113a.8.8,0,0,0,.4,1.556l4.359-1.112a.8.8,0,0,0,.579-.977Zm0,0" transform="translate(-7.364 -204.862)"/>
          <path id="Path_988834" data-name="Path 988834" d="M38.054,279.168a.8.8,0,0,0-1.094-.307l-3.922,2.2a.8.8,0,0,0,.787,1.4l3.922-2.2a.8.8,0,0,0,.307-1.094Zm0,0" transform="translate(-29.145 -248.903)"/>
          <path id="Path_988835" data-name="Path 988835" d="M75.087,321.337l-3.219,3.143c-.728.711.379,1.875,1.122,1.149l3.218-3.143A.8.8,0,0,0,75.087,321.337Zm0,0" transform="translate(-63.96 -286.718)"/>
          <path id="Path_988836" data-name="Path 988836" d="M396.22,321.361a.8.8,0,0,0-1.149,1.122l3.143,3.219a.8.8,0,0,0,1.15-1.122Zm0,0" transform="translate(-352.556 -286.728)"/>
          <path id="Path_988837" data-name="Path 988837" d="M432.519,281.125l-3.869-2.3a.8.8,0,0,0-.82,1.381l3.868,2.3A.8.8,0,0,0,432.519,281.125Zm0,0" transform="translate(-381.67 -248.863)"/>
          <path id="Path_988838" data-name="Path 988838" d="M453.32,230.651l-4.331-1.216a.8.8,0,0,0-.434,1.547l4.331,1.216A.8.8,0,0,0,453.32,230.651Zm0,0" transform="translate(-400.013 -204.833)"/>
          <path id="Path_988839" data-name="Path 988839" d="M460.282,176.558l-4.5-.054a.8.8,0,0,0-.019,1.606l4.5.054A.8.8,0,0,0,460.282,176.558Zm0,0" transform="translate(-406.27 -157.6)"/>
          <path id="Path_988840" data-name="Path 988840" d="M447.8,115.275a.82.82,0,0,0,.977.58l4.359-1.113a.8.8,0,0,0-.4-1.556l-4.359,1.112A.8.8,0,0,0,447.8,115.275Zm0,0" transform="translate(-399.818 -101.038)"/>
          <path id="Path_988841" data-name="Path 988841" d="M427.447,57.039a.821.821,0,0,0,1.094.307l3.922-2.2a.8.8,0,0,0-.786-1.4l-3.922,2.2A.8.8,0,0,0,427.447,57.039Zm0,0" transform="translate(-381.577 -47.89)"/>
          <path id="Path_988842" data-name="Path 988842" d="M395.7,7.3a.8.8,0,0,0,.561-.229l3.218-3.143a.8.8,0,0,0-1.122-1.15L395.14,5.917A.809.809,0,0,0,395.7,7.3Zm0,0" transform="translate(-352.611 -2.273)"/>
        </g>
      </g>
    </g>
  </g>
</svg>
