<svg xmlns="http://www.w3.org/2000/svg" width="85" height="85" viewBox="0 0 85 85">
  <g id="Group_1157242" data-name="Group 1157242" transform="translate(-634 -4645)">
    <g id="Group_1157190" data-name="Group 1157190" transform="translate(634 4645)">
      <g id="Path_978624" data-name="Path 978624" fill="#f5e9a1">
        <path d="M 42.5 83.5 C 36.96437835693359 83.5 31.59512901306152 82.41617584228516 26.54141235351562 80.27863311767578 C 21.65934181213379 78.21369171142578 17.27447128295898 75.25723266601562 13.50862312316895 71.49137878417969 C 9.742764472961426 67.72553253173828 6.786305904388428 63.34066009521484 4.721364498138428 58.45858764648438 C 2.583823442459106 53.40486907958984 1.5 48.03562164306641 1.5 42.5 C 1.5 36.96437835693359 2.583823442459106 31.59512901306152 4.721364498138428 26.54141235351562 C 6.786305904388428 21.65934181213379 9.742764472961426 17.27447128295898 13.50862312316895 13.50862312316895 C 17.27447128295898 9.742764472961426 21.65934181213379 6.786305904388428 26.54141235351562 4.721364498138428 C 31.59512901306152 2.583823442459106 36.96437835693359 1.5 42.5 1.5 C 48.03562164306641 1.5 53.40486907958984 2.583823442459106 58.45858764648438 4.721364498138428 C 63.34066009521484 6.786305904388428 67.72553253173828 9.742764472961426 71.49137878417969 13.50862312316895 C 75.25723266601562 17.27447128295898 78.21369171142578 21.65934181213379 80.27863311767578 26.54141235351562 C 82.41617584228516 31.59512901306152 83.5 36.96437835693359 83.5 42.5 C 83.5 48.03562164306641 82.41617584228516 53.40486907958984 80.27863311767578 58.45858764648438 C 78.21369171142578 63.34066009521484 75.25723266601562 67.72553253173828 71.49137878417969 71.49137878417969 C 67.72553253173828 75.25723266601562 63.34066009521484 78.21369171142578 58.45858764648438 80.27863311767578 C 53.40486907958984 82.41617584228516 48.03562164306641 83.5 42.5 83.5 Z" stroke="none"/>
        <path d="M 42.5 3 C 37.16621398925781 3 31.99356079101562 4.043960571289062 27.125732421875 6.102882385253906 C 22.42246627807617 8.092185974121094 18.19785308837891 10.94070434570312 14.56928253173828 14.56928253173828 C 10.94070434570312 18.19785308837891 8.092185974121094 22.42246627807617 6.102882385253906 27.125732421875 C 4.043960571289062 31.99356079101562 3 37.16621398925781 3 42.5 C 3 47.83378601074219 4.043960571289062 53.00643920898438 6.102882385253906 57.87425231933594 C 8.092185974121094 62.57753372192383 10.94070434570312 66.80213165283203 14.56928253173828 70.43071746826172 C 18.19786834716797 74.05929565429688 22.42246627807617 76.90781402587891 27.125732421875 78.89711761474609 C 31.99356079101562 80.95603942871094 37.16621398925781 82 42.5 82 C 47.83378601074219 82 53.00642395019531 80.95603942871094 57.87425231933594 78.89711761474609 C 62.57753372192383 76.90781402587891 66.80213165283203 74.05929565429688 70.43071746826172 70.43071746826172 C 74.05929565429688 66.80213165283203 76.90781402587891 62.57753372192383 78.89711761474609 57.87425231933594 C 80.95603942871094 53.00642395019531 82 47.83378601074219 82 42.5 C 82 37.16621398925781 80.95603942871094 31.99356079101562 78.89711761474609 27.125732421875 C 76.90781402587891 22.42246627807617 74.05929565429688 18.19786834716797 70.43071746826172 14.56928253173828 C 66.80213165283203 10.94070434570312 62.57753372192383 8.092185974121094 57.87425231933594 6.102882385253906 C 53.00643920898438 4.043960571289062 47.83378601074219 3 42.5 3 M 42.5 0 C 65.97209167480469 0 85 19.02789306640625 85 42.5 C 85 65.97209167480469 65.97209167480469 85 42.5 85 C 19.02789306640625 85 0 65.97209167480469 0 42.5 C 0 19.02789306640625 19.02789306640625 0 42.5 0 Z" stroke="none" fill="#bcac89"/>
      </g>
      <g id="trabajo-en-equipo" transform="translate(16.785 16.785)">
        <path id="Path_990700" data-name="Path 990700" d="M371.907,389.227H359.07v11.579h14.608V391l-1.771-1.771Zm0,0" transform="translate(-323.001 -350.129)" fill="#ffe477"/>
        <path id="Path_990701" data-name="Path 990701" d="M426.511,397.134h1.14l1.059-1.421-.623-6.486h-2.012l-.622,6.486Zm0,0" transform="translate(-382.716 -350.129)" fill="#ffb655"/>
        <path id="Path_990702" data-name="Path 990702" d="M9.275,389.227H22.112v11.579H7.5V391l1.771-1.771Zm0,0" transform="translate(-6.75 -350.129)" fill="#7c84e8"/>
        <path id="Path_990703" data-name="Path 990703" d="M96.327,397.134h-1.14l-1.058-1.421.622-6.486h2.012l.622,6.486Zm0,0" transform="translate(-84.674 -350.129)" fill="#515be0"/>
        <path id="Path_990704" data-name="Path 990704" d="M213.414,235.018V239.5l-3.362,3.362h-3.983l-3.362-3.362v-4.483a5.353,5.353,0,1,1,10.707,0Zm0,0" transform="translate(-182.345 -206.594)" fill="#ffdaaa"/>
        <path id="Path_990705" data-name="Path 990705" d="M173.64,375.47v-12.2l-2.2-2.2h-16.3l-2.2,2.2v12.2Zm0,0" transform="translate(-137.571 -324.794)" fill="#787680"/>
        <path id="Path_990706" data-name="Path 990706" d="M227.04,372.153h-1.418l-4.837-11.091h11.092Zm0,0" transform="translate(-198.607 -324.794)" fill="#57565c"/>
        <path id="Path_990707" data-name="Path 990707" d="M207.04,372.153h-1.418l-4.837-11.091h11.092Zm0,0" transform="translate(-180.616 -324.794)" fill="#fff"/>
        <path id="Path_990708" data-name="Path 990708" d="M237.142,372.153h1.418l1.317-3.02-.775-8.071h-2.5l-.775,8.071Zm0,0" transform="translate(-212.136 -324.794)" fill="#ff7956"/>
        <path id="Path_990709" data-name="Path 990709" d="M387.44,287.931v3.6l-2.7,2.7h-3.2l-2.7-2.7v-3.6a4.3,4.3,0,0,1,8.6,0Zm0,0" transform="translate(-340.782 -255.139)" fill="#ffdaaa"/>
        <path id="Path_990710" data-name="Path 990710" d="M406.511,397.134h1.14l1.059-1.421-.623-6.486h-2.012l-.622,6.486Zm0,0" transform="translate(-364.725 -350.129)" fill="#d7fc7e"/>
        <path id="Path_990711" data-name="Path 990711" d="M56.108,287.931v3.6l-2.7,2.7h-3.2l-2.7-2.7v-3.6a4.3,4.3,0,0,1,8.6,0Zm0,0" transform="translate(-42.732 -255.139)" fill="#ffdaaa"/>
        <path id="Path_990712" data-name="Path 990712" d="M76.327,397.134h-1.14l-1.058-1.421.622-6.486h2.012l.622,6.486Zm0,0" transform="translate(-66.682 -350.129)" fill="#ffb655"/>
        <path id="Path_990713" data-name="Path 990713" d="M50.416,27.653a18.463,18.463,0,0,0-1.859-4.485l4.136-5.776L47.531,12.23l-5.776,4.136a18.463,18.463,0,0,0-4.485-1.859L36.111,7.5h-7.3l-1.159,7.007a18.463,18.463,0,0,0-4.485,1.859L17.391,12.23,12.23,17.392l4.136,5.776a18.463,18.463,0,0,0-1.859,4.485L7.5,28.812v7.3l4.905.811a4.3,4.3,0,0,1,7.718,2.616v3.6l-2.7,2.7h4.687v-.625l2.2-2.2H30.47l-3.362-3.362v-.54a8.538,8.538,0,1,1,10.707,0v.54l-3.362,3.362h6.157l2.2,2.2v.625H47.5l-2.7-2.7v-3.6a4.3,4.3,0,0,1,7.718-2.616l4.9-.811v-7.3Zm0,0" transform="translate(-6.746 -6.747)" fill="#c6c5ca"/>
        <path id="Path_990714" data-name="Path 990714" d="M282.2,276.186a5.414,5.414,0,0,0-.053-.757,8.541,8.541,0,0,1-2.961,4.7v.54l-3.362,3.362h3.013l3.362-3.362Zm0,0" transform="translate(-248.121 -247.763)" fill="#898890"/>
        <path id="Path_990715" data-name="Path 990715" d="M359.07,389.227h3.013v11.579H359.07Zm0,0" transform="translate(-323.001 -350.129)" fill="#ffb655"/>
        <path id="Path_990716" data-name="Path 990716" d="M12.289,389.227H9.275L7.5,391v9.808h3.013V391Zm0,0" transform="translate(-6.75 -350.129)" fill="#515be0"/>
        <path id="Path_990717" data-name="Path 990717" d="M205.72,239.5v-4.483a5.356,5.356,0,0,1,3.847-5.139,5.357,5.357,0,0,0-6.86,5.139V239.5l3.362,3.362h3.013Zm0,0" transform="translate(-182.345 -206.595)" fill="#ffbb85"/>
        <path id="Path_990718" data-name="Path 990718" d="M202.794,361.063h-2.009l4.837,11.091h1.418l.3-.677Zm0,0" transform="translate(-180.616 -324.794)" fill="#d8d7da"/>
        <path id="Path_990719" data-name="Path 990719" d="M237.833,369.134l.775-8.071H236.6l-.775,8.071,1.317,3.02h1.418l.3-.677Zm0,0" transform="translate(-212.135 -324.794)" fill="#ff5023"/>
        <path id="Path_990720" data-name="Path 990720" d="M381.849,291.534v-3.6a4.3,4.3,0,0,1,2.8-4.031,4.305,4.305,0,0,0-5.809,4.031v3.6l2.7,2.7h3.014Zm0,0" transform="translate(-340.782 -255.138)" fill="#ffbb85"/>
        <path id="Path_990721" data-name="Path 990721" d="M50.517,291.534v-3.6a4.3,4.3,0,0,1,2.8-4.031,4.305,4.305,0,0,0-5.809,4.031v3.6l2.7,2.7h3.013Zm0,0" transform="translate(-42.732 -255.138)" fill="#ffbb85"/>
        <path id="Path_990722" data-name="Path 990722" d="M158.151,361.063h-3.013l-2.2,2.2v12.2h3.013v-12.2Zm0,0" transform="translate(-137.571 -324.794)" fill="#57565c"/>
        <g id="Group_1156535" data-name="Group 1156535" transform="translate(0.754 0.753)">
          <path id="Path_990723" data-name="Path 990723" d="M182.253,16.366a18.463,18.463,0,0,1,4.485-1.859L187.9,7.5h-3.013l-1.159,7.007a18.439,18.439,0,0,0-2.725.963Zm0,0" transform="translate(-163.572 -7.5)" fill="#898890"/>
          <path id="Path_990724" data-name="Path 990724" d="M362.756,58.729l4.02-2.879-1.257-1.257L361,57.832A18.555,18.555,0,0,1,362.756,58.729Zm0,0" transform="translate(-325.487 -49.863)" fill="#898890"/>
          <path id="Path_990725" data-name="Path 990725" d="M111.141,291.534v-3.6a4.305,4.305,0,0,0-5.809-4.031,4.3,4.3,0,0,1,2.8,4.031v3.6l-2.7,2.7h3.013Zm0,0" transform="translate(-95.505 -255.892)" fill="#898890"/>
          <path id="Path_990726" data-name="Path 990726" d="M10.513,78.471v-7.3l7.007-1.159a18.463,18.463,0,0,1,1.859-4.485l-4.136-5.776,3.9-3.9L17.392,54.59,12.23,59.751l4.136,5.776a18.463,18.463,0,0,0-1.859,4.485L7.5,71.171v7.3l4.905.811a4.34,4.34,0,0,1,.383-.435Zm0,0" transform="translate(-7.5 -49.86)" fill="#898890"/>
          <path id="Path_990727" data-name="Path 990727" d="M438.174,283.629a4.289,4.289,0,0,0-1.506.271,4.313,4.313,0,0,1,1.909,1.415l2.63-.435A4.288,4.288,0,0,0,438.174,283.629Zm0,0" transform="translate(-393.558 -255.892)" fill="#898890"/>
          <path id="Path_990728" data-name="Path 990728" d="M340.138,361.063h-3.013l2.2,2.2v.625h3.013v-.625Zm0,0" transform="translate(-304.014 -325.548)" fill="#898890"/>
        </g>
        <path id="Path_990729" data-name="Path 990729" d="M160.351,235.363l2.3-2.3v-4.8a6.107,6.107,0,1,0-12.213,0v4.8l2.3,2.3h-4.651l-2.645,2.645v13.269h22.213V238.009L165,235.363Zm.585,1.507-1.9,4.35-.417-4.35Zm-5.653,7.2.69-7.2h1.134l.691,7.2-1.042,2.389h-.432Zm-3.342-15.794a4.6,4.6,0,1,1,9.2,0v4.171l-2.92,2.92h-3.359l-2.92-2.92v-4.171Zm2.519,8.6-.417,4.35-1.9-4.35Zm11.681,12.9h-3.057v-7.76h-1.507v7.76H151.5v-7.76H150v7.76H146.94V238.633l1.763-1.763h1.8l4.836,11.091h2.4l4.837-11.091h1.8l1.763,1.763v11.139Zm0,0" transform="translate(-130.825 -199.848)"/>
        <path id="Path_990730" data-name="Path 990730" d="M379.811,286.733l1.636-1.636v-3.915a5.056,5.056,0,1,0-10.111,0V285.1l1.636,1.636h-.859v1.507h2.443l-.571,5.95,1.458,1.958h1.9l1.458-1.958-.571-5.95h4.4l1.33,1.33v8.742H381.3v-6.088h-1.507v6.088h-6.794v-6.088h-1.507v7.595h13.977V288.946l-2.213-2.213h-3.442Zm-6.968-5.551a3.549,3.549,0,0,1,7.1,0v3.291l-2.26,2.26H375.1l-2.26-2.26Zm4.4,12.574-.659.885H376.2l-.659-.885.529-5.516h.643Zm0,0" transform="translate(-334.035 -248.389)"/>
        <path id="Path_990731" data-name="Path 990731" d="M9.078,276.129a5.061,5.061,0,0,0-5.056,5.055V285.1l1.636,1.636H2.217L0,288.949v10.873H13.981v-7.595H12.475v6.088H5.681v-6.088H4.174v6.088H1.511v-8.742l1.33-1.33h4.4l-.571,5.95L8.13,296.15h1.9l1.458-1.958-.571-5.95h2.444v-1.507H12.5l1.636-1.636v-3.916a5.061,5.061,0,0,0-5.055-5.055Zm.851,17.63-.659.885H8.886l-.659-.885.529-5.516H9.4Zm2.7-9.283-2.26,2.26H7.789l-2.261-2.26v-3.291a3.549,3.549,0,1,1,7.1,0Zm0,0" transform="translate(-0.003 -248.392)"/>
        <path id="Path_990732" data-name="Path 990732" d="M28.726,1.507,29.86,8.362a18.029,18.029,0,0,1,5.193,2.153L40.7,6.468l4.258,4.258-4.047,5.651a18.025,18.025,0,0,1,2.153,5.193L49.924,22.7v6.021l-2.124.352.246,1.486L51.43,30V21.426l-7.164-1.185A19.218,19.218,0,0,0,42.7,16.47l4.229-5.906L40.866,4.5,34.961,8.728a19.241,19.241,0,0,0-3.771-1.564L30,0H21.427L20.241,7.164A19.264,19.264,0,0,0,16.47,8.728L10.565,4.5,4.5,10.564l4.229,5.905a19.254,19.254,0,0,0-1.564,3.772L0,21.426V30l3.385.56.246-1.486-2.124-.352V22.7L8.363,21.57a18.026,18.026,0,0,1,2.153-5.193L6.469,10.726l4.258-4.258,5.651,4.047A18.029,18.029,0,0,1,21.57,8.362L22.7,1.507Zm0,0"/>
        <path id="Path_990733" data-name="Path 990733" d="M180.8,177.5a9.291,9.291,0,1,0-16.023,0l1.3-.765a7.785,7.785,0,1,1,13.426,0Zm0,0" transform="translate(-147.076 -147.077)"/>
        <path id="Path_990734" data-name="Path 990734" d="M422.755,308.027l-1.065-1.065,1.008-1.008H424.2v.624Zm1.449-3.113H422.7V303.7a1.029,1.029,0,0,0-.014-.171l1.486-.249a2.539,2.539,0,0,1,.035.42Zm-1.769-1.9a1.036,1.036,0,0,0-.772-.346v-1.507a2.544,2.544,0,0,1,1.9.85Zm0,0" transform="translate(-379.308 -270.912)" fill="#fff"/>
        <path id="Path_990735" data-name="Path 990735" d="M257.484,256.626l-1.065-1.065,1.67-1.67v-2.574h1.507v3.2Zm.579-6.194a2.079,2.079,0,0,0-.449-1l1.164-.957a3.589,3.589,0,0,1,.773,1.718Zm-1.008-1.475a2.083,2.083,0,0,0-1.055-.286v-1.507a3.591,3.591,0,0,1,1.819.494Zm0,0" transform="translate(-230.284 -222.336)" fill="#fff"/>
        <path id="Path_990736" data-name="Path 990736" d="M91.427,308.027l-1.066-1.065,1.008-1.008h1.507v.624Zm1.449-3.113H91.37V303.7a1.03,1.03,0,0,0-.014-.171l1.486-.249a2.583,2.583,0,0,1,.035.42Zm-1.769-1.9a1.036,1.036,0,0,0-.771-.346v-1.507a2.545,2.545,0,0,1,1.9.85Zm0,0" transform="translate(-81.261 -270.912)" fill="#fff"/>
        <path id="Path_990737" data-name="Path 990737" d="M271.318,105.325a15.286,15.286,0,0,0-10.611-14.579l.464-1.433a16.854,16.854,0,0,1,11.654,16.012ZM259.789,90.48c-.461-.118-.934-.215-1.406-.289l.234-1.488c.518.081,1.037.188,1.544.317Zm-2.355-.407c-.474-.044-.956-.066-1.434-.066V88.5c.524,0,1.054.024,1.573.073Zm0,0" transform="translate(-230.285 -79.61)" fill="#fff"/>
      </g>
    </g>
  </g>
</svg>
